<svg xmlns="http://www.w3.org/2000/svg" width="26" height="28" viewBox="0 0 26 28"><defs><style>.a,.b,.d{fill:none;}.a{stroke:#04657c;stroke-width:2px;}.c,.e{stroke:none;}.e{fill:#04657c;}</style></defs><g transform="translate(-829 -1716)"><g class="a" transform="translate(829 1722)"><rect class="c" width="26" height="22" rx="7"/><rect class="d" x="1" y="1" width="24" height="20" rx="6"/></g><g class="b" transform="translate(835.5 1716)"><path class="c" d="M4.063,0H8.938A4.131,4.131,0,0,1,13,4.2V26.571c0,2.317-2.09,1.119-4.333,1.119h-4.6C1.819,27.69,0,28.329,0,26.012V4.2A4.131,4.131,0,0,1,4.063,0Z"/><path class="e" d="M 4.0625 2 C 2.925230026245117 2 2 2.984889984130859 2 4.195489883422852 L 2 25.77000427246094 C 2.217782020568848 25.76625442504883 2.471643447875977 25.75213432312012 2.738149642944336 25.7373104095459 C 3.134799957275391 25.71525001525879 3.584369659423828 25.69025039672852 4.0625 25.69025039672852 L 8.666679382324219 25.69025039672852 C 9.435919761657715 25.69025039672852 10.16288948059082 25.79955101013184 10.74703025817871 25.88738059997559 C 10.83286762237549 25.90028762817383 10.91765022277832 25.91303443908691 11 25.92505264282227 L 11 4.195489883422852 C 11 2.984889984130859 10.07476997375488 2 8.9375 2 L 4.0625 2 M 4.0625 0 L 8.9375 0 C 11.18115997314453 0 13 1.878379821777344 13 4.195489883422852 L 13 26.57142066955566 C 13 27.71031188964844 12.4948902130127 28 11.71506500244141 28 C 10.9083194732666 28 9.807544708251953 27.69025039672852 8.666679382324219 27.69025039672852 L 4.0625 27.69025039672852 C 3.26508617401123 27.69025039672852 2.521105766296387 27.77097320556641 1.893595695495605 27.77097320556641 C 0.7554998397827148 27.77097320556641 0 27.50564193725586 0 26.01205062866211 L 0 4.195489883422852 C 0 1.878379821777344 1.818840026855469 0 4.0625 0 Z"/></g></g></svg>