<svg xmlns="http://www.w3.org/2000/svg" xmlns:xlink="http://www.w3.org/1999/xlink" width="704.544" height="710.499" viewBox="0 0 704.544 710.499"><defs><style>.a{fill:none;stroke:#d5d5d5;stroke-linecap:round;stroke-width:10px;opacity:0.37;}.b{fill:#fefeff;}.c{fill:#d28e06;}.d{fill:#ffb013;}.e{fill:#0b4872;}.f{fill:#1b71ab;}.g{fill:#066bae;}.h{fill:url(#a);}.i{fill:#075b95;}.j{fill:#044067;}</style><linearGradient id="a" x1="0.145" y1="0.87" x2="0.639" y2="-0.167" gradientUnits="objectBoundingBox"><stop offset="0" stop-color="#066bae"/><stop offset="1" stop-color="#03304d"/></linearGradient></defs><g transform="translate(-2160.927 -3653.11)"><path class="a" d="M0,0S160.205,210.358,276.052,81.967,521.966,51.283,521.966,51.283" transform="matrix(-0.839, -0.545, 0.545, -0.839, 2789.614, 4276.578)"/><rect class="b" width="159" height="153" transform="matrix(0.995, 0.105, -0.105, 0.995, 2341.778, 3817.968)"/><g transform="translate(2108.869 3978.963) rotate(10)"><path class="c" d="M.5,1.574,151.439,4.247l.656,33.419L1.16,34.993Z" transform="matrix(0.985, -0.174, 0.174, 0.985, 555.199, 254.203)"/><path class="c" d="M6.292,6.183l7.416-5.8.363,10.952L.363,10.952Z" transform="matrix(0.985, -0.174, 0.174, 0.985, 553.843, 245.892)"/><path class="c" d="M7.78,5.153l-7.416,5.8L0,0,13.708.384Z" transform="matrix(0.985, -0.174, 0.174, 0.985, 709.264, 254.397)"/><path class="d" d="M.5,1.574,151.439,4.247l.656,33.419L1.16,34.993Z" transform="matrix(0.985, -0.174, 0.174, 0.985, 566.64, 242.661)"/></g><path class="e" d="M34.142-.452C53.088-.6,68.318,15.3,68.16,35.074S52.515,71,33.569,71.149-.608,55.4-.449,35.623,15.2-.3,34.142-.452Z" transform="translate(2716.538 4309.699) rotate(166)"/><path class="f" d="M34.076.3c18.912.265,34.45,16.54,34.706,36.35S53.914,72.3,35,72.038.552,55.5.3,35.688,15.164.033,34.076.3Z" transform="translate(2709.366 4324.174) rotate(-171)"/><path class="g" d="M0,0,8.781,1.015,9,14,.974,13.85Z" transform="translate(2619.093 4273.89) rotate(-98)"/><path class="h" d="M54,0l54,90H0Z" transform="matrix(0.839, -0.545, 0.545, 0.839, 2569.918, 4196.092)"/><path class="i" d="M54,0l54,90H0Z" transform="matrix(0.839, -0.545, 0.545, 0.839, 2582.956, 4195.971)"/><rect class="j" width="8" height="13" transform="translate(2615.374 4174.373) rotate(-90)"/><ellipse class="i" cx="13" cy="12.5" rx="13" ry="12.5" transform="translate(2432 3939)"/></g></svg>